<svg xmlns="http://www.w3.org/2000/svg" viewBox="0 0 34.98 44.77"><defs><style>.cls-1{fill:#333;}.cls-2{fill:#39a2db;}</style></defs><title>Asset 2</title><g id="Layer_2" data-name="Layer 2"><g id="_ÎÓÈ_1" data-name="—ÎÓÈ_1"><path class="cls-1" d="M25.59,44.77H24.5a.63.63,0,0,1-.63-.63V36.7a2.29,2.29,0,0,1,2.22-2.31h8.26A.64.64,0,0,1,35,35v.75a.66.66,0,0,1-.19.46L26,44.6A.61.61,0,0,1,25.59,44.77Zm-.45-1.26h.19l8.23-7.85H26.09a1,1,0,0,0-.95,1Z"/><path class="cls-1" d="M25.59,44.77H2.19A2.19,2.19,0,0,1,0,42.59V2.19A2.19,2.19,0,0,1,2.19,0h30.6A2.19,2.19,0,0,1,35,2.19V35.78a.66.66,0,0,1-.19.46L26,44.6A.61.61,0,0,1,25.59,44.77ZM2.19,1.27a.92.92,0,0,0-.92.92v40.4a.92.92,0,0,0,.92.92H25.33l8.39-8V2.19a.93.93,0,0,0-.93-.92Z"/><path class="cls-1" d="M27.58,28.28H8.7a.64.64,0,0,1-.63-.64A.63.63,0,0,1,8.7,27H27.58a.63.63,0,0,1,.63.63A.64.64,0,0,1,27.58,28.28Z"/><path class="cls-1" d="M27.58,33H8.7a.64.64,0,0,1-.63-.64.63.63,0,0,1,.63-.63H27.58a.63.63,0,0,1,.63.63A.64.64,0,0,1,27.58,33Z"/><path class="cls-1" d="M21.52,37.8H8.7a.63.63,0,0,1-.63-.63.64.64,0,0,1,.63-.64H21.52a.64.64,0,0,1,.63.64A.63.63,0,0,1,21.52,37.8Z"/><path class="cls-2" d="M17.49,8.13a3,3,0,1,1-3,3,3,3,0,0,1,3-3m0-1.27a4.28,4.28,0,1,0,4.28,4.28,4.28,4.28,0,0,0-4.28-4.28Z"/><path class="cls-2" d="M21.69,18.05a2.05,2.05,0,0,1,2.06,2.05v1.79H11.24V20.1a2.05,2.05,0,0,1,2-2.05h8.4m0-1.27h-8.4A3.32,3.32,0,0,0,10,20.1v3.06H25V20.1a3.32,3.32,0,0,0-3.32-3.32Z"/></g></g></svg>