<svg xmlns="http://www.w3.org/2000/svg" viewBox="0 0 32.58 32.59"><defs><style>.cls-1{fill:#4d4d4d;}.cls-2{fill:#fff;}</style></defs><title>Asset 13</title><g id="Layer_2" data-name="Layer 2"><g id="_ÎÓÈ_1" data-name="—ÎÓÈ_1"><path class="cls-1" d="M16.27,32.59A16.3,16.3,0,1,1,32.58,16.32,16.3,16.3,0,0,1,16.27,32.59ZM14.54,18.22v6.52c0,1.07,0,2.13,0,3.19h4.37c0-1.63,0-3.23,0-4.83s0-3.22,0-4.86h3.27l.64-4.13H19C19,13,18.92,12,19,11a1.71,1.71,0,0,1,1.3-1.56,3.59,3.59,0,0,1,.93-.12c.56,0,1.12,0,1.7,0V5.9a.48.48,0,0,0-.15-.07,14.29,14.29,0,0,0-3.63-.24A5,5,0,0,0,16,7a4.87,4.87,0,0,0-1.41,3.16c-.08,1.14-.06,2.29-.08,3.43,0,.19,0,.37,0,.62H11v4.06Z"/><path class="cls-2" d="M14.54,18.22H11V14.16h3.5c0-.25,0-.43,0-.62,0-1.14,0-2.29.08-3.43A4.87,4.87,0,0,1,16,7a5,5,0,0,1,3.13-1.36,14.29,14.29,0,0,1,3.63.24A.48.48,0,0,1,23,5.9V9.27c-.58,0-1.14,0-1.7,0a3.59,3.59,0,0,0-.93.12A1.71,1.71,0,0,0,19,11c-.1,1,0,2.06-.05,3.15h3.91l-.64,4.13H19c0,1.64,0,3.25,0,4.86s0,3.2,0,4.83H14.57c-.05-1.06,0-2.12,0-3.19V18.22Z"/></g></g></svg>