<svg xmlns="http://www.w3.org/2000/svg" viewBox="0 0 39.23 44.59"><defs><style>.cls-1{fill:#213b4f;}.cls-2{fill:#0098d7;}</style></defs><title>Asset 4</title><g id="Layer_2" data-name="Layer 2"><g id="_ÎÓÈ_1" data-name="—ÎÓÈ_1"><path class="cls-1" d="M32.54,44.59H1.08A1.08,1.08,0,0,1,0,43.51V1.08A1.08,1.08,0,0,1,1.08,0H24.17a1,1,0,0,1,.76.32L33.3,8.68a1.11,1.11,0,0,1,.32.76v8.67a1.08,1.08,0,0,1-2.16,0V9.89L23.73,2.15H2.15V42.43H31.46v-.87a1.08,1.08,0,1,1,2.16,0v1.95A1.08,1.08,0,0,1,32.54,44.59Z"/><path class="cls-1" d="M32.54,10.52H24.17a1.08,1.08,0,0,1-1.08-1.08V1.08a1.08,1.08,0,1,1,2.16,0V8.37h7.29a1.08,1.08,0,1,1,0,2.15Z"/><path class="cls-2" d="M16.16,36.22H6.54a1.08,1.08,0,1,1,0-2.15h9.62a1.08,1.08,0,0,1,0,2.15Z"/><path class="cls-2" d="M15.05,31.11H6.54a1.08,1.08,0,1,1,0-2.15h8.51a1.08,1.08,0,1,1,0,2.15Z"/><path class="cls-2" d="M16,26H6.54a1.08,1.08,0,1,1,0-2.15H16A1.08,1.08,0,0,1,16,26Z"/><path class="cls-2" d="M19.66,20.79H6.54a1.08,1.08,0,1,1,0-2.15H19.66a1.08,1.08,0,1,1,0,2.15Z"/><path class="cls-2" d="M27.08,15.63H6.54a1.08,1.08,0,1,1,0-2.15H27.08a1.08,1.08,0,1,1,0,2.15Z"/><path class="cls-2" d="M16.81,10.52H6.54a1.08,1.08,0,1,1,0-2.15H16.81a1.08,1.08,0,0,1,0,2.15Z"/><path class="cls-1" d="M28.43,40.63a10.8,10.8,0,1,1,10.8-10.8A10.81,10.81,0,0,1,28.43,40.63Zm0-19.44a8.65,8.65,0,1,0,8.64,8.64A8.66,8.66,0,0,0,28.43,21.19Z"/><path class="cls-1" d="M28.56,29.07a1.29,1.29,0,0,1-.3.37,1.4,1.4,0,0,1,.31.39,1.54,1.54,0,0,1,.2.79v1.75a.24.24,0,0,1-.24.24h-.74a.23.23,0,0,1-.23-.24V30.19a.3.3,0,0,0,0-.15.21.21,0,0,0-.1-.11l-.06,0a3.17,3.17,0,0,1-.59.1l-.5,0H24.79v2.33a.24.24,0,0,1-.24.24h-.76a.23.23,0,0,1-.23-.24V25.68a.26.26,0,0,1,.26-.27h2.44l.38,0,.44.06a4.35,4.35,0,0,1,.46.11,2,2,0,0,1,.44.21,1.85,1.85,0,0,1,.27.19,1.94,1.94,0,0,1,.23.26,1.49,1.49,0,0,1,.21.44,1.8,1.8,0,0,1,.08.54v1A1.7,1.7,0,0,1,28.56,29.07Zm-1-1.79a1.09,1.09,0,0,0-.09-.47,1,1,0,0,0-.22-.3,1.06,1.06,0,0,0-.33-.18,2.85,2.85,0,0,0-.39-.11l-.26,0H24.79v3.09h1.49l.29,0a1.38,1.38,0,0,0,.54-.2.72.72,0,0,0,.26-.26.65.65,0,0,0,.12-.25,1.49,1.49,0,0,0,0-.33Z"/><path class="cls-1" d="M33.14,31.56a1.56,1.56,0,0,1-.06.44,1.27,1.27,0,0,1-.17.35.91.91,0,0,1-.19.2,1.12,1.12,0,0,1-.22.16,1.26,1.26,0,0,1-.35.17l-.37.09a2.27,2.27,0,0,1-.35.05h-1v1.59a.22.22,0,0,1-.23.22h-.55a.22.22,0,0,1-.23-.22V29a.22.22,0,0,1,.23-.22h1.47a4.21,4.21,0,0,1,.57,0,2.35,2.35,0,0,1,.66.19,2,2,0,0,1,.31.19,1.24,1.24,0,0,1,.25.26,1.34,1.34,0,0,1,.23.79Zm-1-1.27a.73.73,0,0,0-.19-.56,1,1,0,0,0-.47-.25,1.78,1.78,0,0,0-.57-.07h-.48v3h.48a2.12,2.12,0,0,0,.57-.06,1.14,1.14,0,0,0,.47-.26.73.73,0,0,0,.19-.56Z"/></g></g></svg>