<svg xmlns="http://www.w3.org/2000/svg" xmlns:xlink="http://www.w3.org/1999/xlink" viewBox="0 0 34.98 44.77"><defs><style>.cls-1{fill:#333;}.cls-2{fill:url(#linear-gradient);}</style><linearGradient id="linear-gradient" x1="13.85" y1="14.6" x2="21.68" y2="14.6" gradientUnits="userSpaceOnUse"><stop offset="0" stop-color="#018fbe"/><stop offset="0.7" stop-color="#29aae1"/></linearGradient></defs><title>Asset 6</title><g id="Layer_2" data-name="Layer 2"><g id="_ÎÓÈ_1" data-name="—ÎÓÈ_1"><path class="cls-1" d="M25.59,44.77H24.5a.63.63,0,0,1-.63-.63V36.7a2.29,2.29,0,0,1,2.22-2.31h8.26A.64.64,0,0,1,35,35v.75a.66.66,0,0,1-.19.46L26,44.6A.61.61,0,0,1,25.59,44.77Zm-.45-1.26h.19l8.23-7.85H26.09a1,1,0,0,0-.95,1Z"/><path class="cls-1" d="M25.59,44.77H2.19A2.19,2.19,0,0,1,0,42.59V2.19A2.19,2.19,0,0,1,2.19,0h30.6A2.19,2.19,0,0,1,35,2.19V35.78a.66.66,0,0,1-.19.46L26,44.6A.61.61,0,0,1,25.59,44.77ZM2.19,1.27a.92.92,0,0,0-.92.92v40.4a.92.92,0,0,0,.92.92H25.33l8.39-8V2.19a.93.93,0,0,0-.93-.92Z"/><path class="cls-1" d="M27.58,28.28H8.7a.64.64,0,0,1-.63-.64A.63.63,0,0,1,8.7,27H27.58a.63.63,0,0,1,.63.63A.64.64,0,0,1,27.58,28.28Z"/><path class="cls-1" d="M27.58,33H8.7a.64.64,0,0,1-.63-.64.63.63,0,0,1,.63-.63H27.58a.63.63,0,0,1,.63.63A.64.64,0,0,1,27.58,33Z"/><path class="cls-1" d="M21.52,37.8H8.7a.63.63,0,0,1-.63-.63.64.64,0,0,1,.63-.64H21.52a.64.64,0,0,1,.63.64A.63.63,0,0,1,21.52,37.8Z"/><path class="cls-2" d="M18.93,11.35c.43,0,.64.3.64.89v6.82c0,.77.14,1.16.43,1.16a1.65,1.65,0,0,0,.33-.06,1.61,1.61,0,0,1,.39-.06c.64,0,1,.4,1,1.18,0,1-.45,1.57-1.34,1.57-.15,0-.58,0-1.27-.12-.43,0-.91-.06-1.45-.06a11.27,11.27,0,0,0-1.2.09,11.73,11.73,0,0,1-1.18.09,1.3,1.3,0,0,1-1-.42,1.52,1.52,0,0,1-.39-1.08c0-.86.37-1.29,1.09-1.29l.59.13.16,0c.27,0,.41-.43.41-1.27V15.27q0-1.29-.39-1.29a2.86,2.86,0,0,0-.41.11,1.38,1.38,0,0,1-.36.05c-.72,0-1.09-.42-1.09-1.27a1.56,1.56,0,0,1,.39-1.1,1.33,1.33,0,0,1,1-.42,4.72,4.72,0,0,1,.72.07,10.49,10.49,0,0,0,1.27.11,7.17,7.17,0,0,0,1-.09Zm-1.29-.86a2.08,2.08,0,0,1-2.06-2.06A2,2,0,0,1,16.18,7,2.08,2.08,0,0,1,19.1,7a2.09,2.09,0,0,1,0,2.93A2,2,0,0,1,17.64,10.49Z"/></g></g></svg>