<svg xmlns="http://www.w3.org/2000/svg" viewBox="0 0 32.66 32.63"><defs><style>.cls-1{fill:#4d4d4d;}.cls-2{fill:#fff;}</style></defs><title>Asset 11</title><g id="Layer_2" data-name="Layer 2"><g id="_ÎÓÈ_1" data-name="—ÎÓÈ_1"><path class="cls-1" d="M32.66,16.33A16.33,16.33,0,1,1,16.33,0,16.32,16.32,0,0,1,32.66,16.33Zm-4.22-.07h.06l-.15-4.53A11.82,11.82,0,0,0,28,9a6.28,6.28,0,0,0-2.68-3.84A7.39,7.39,0,0,0,21.25,4c-3.06,0-6.12,0-9.18,0a10.27,10.27,0,0,0-3.48.51A6.25,6.25,0,0,0,4.47,9.09a15,15,0,0,0-.37,3.46C4,15,4,17.44,4.07,19.88a15.08,15.08,0,0,0,.3,3.41,6.27,6.27,0,0,0,3.84,4.57,10,10,0,0,0,3.78.62c2.74,0,5.49,0,8.23-.05a12.57,12.57,0,0,0,3.5-.42,6.17,6.17,0,0,0,4-3.51,7.8,7.8,0,0,0,.68-3.23C28.46,19.6,28.44,17.93,28.44,16.26Z"/><path class="cls-2" d="M28.44,16.26c0,1.67,0,3.34,0,5a7.8,7.8,0,0,1-.68,3.23,6.17,6.17,0,0,1-4,3.51,12.57,12.57,0,0,1-3.5.42c-2.74,0-5.49.06-8.23.05a10,10,0,0,1-3.78-.62,6.27,6.27,0,0,1-3.84-4.57,15.08,15.08,0,0,1-.3-3.41c0-2.44,0-4.89,0-7.33a15,15,0,0,1,.37-3.46A6.25,6.25,0,0,1,8.59,4.52,10.27,10.27,0,0,1,12.07,4c3.06,0,6.12,0,9.18,0a7.39,7.39,0,0,1,4.11,1.15A6.28,6.28,0,0,1,28,9a11.82,11.82,0,0,1,.31,2.72l.15,4.53Zm-22.25.1h0c0,1.08,0,2.15,0,3.22a14.15,14.15,0,0,0,.27,3.31,4.26,4.26,0,0,0,2,2.67,6.35,6.35,0,0,0,3,.7c1.09,0,2.18.06,3.27,0,2.25,0,4.51-.06,6.75-.12a7.22,7.22,0,0,0,1.66-.29A4,4,0,0,0,26,23.23a6.85,6.85,0,0,0,.37-2.33c0-3.15,0-6.29-.1-9.44A8.48,8.48,0,0,0,26,9.58a4.09,4.09,0,0,0-2.92-3.17,8.46,8.46,0,0,0-2.34-.31c-2,0-4,0-6.07,0A26.57,26.57,0,0,0,10,6.31a4.1,4.1,0,0,0-3.3,2.62,6.22,6.22,0,0,0-.44,2.21C6.25,12.88,6.22,14.62,6.19,16.36Z"/><path class="cls-1" d="M6.19,16.36c0-1.74.06-3.48.11-5.22a6.22,6.22,0,0,1,.44-2.21A4.1,4.1,0,0,1,10,6.31a26.57,26.57,0,0,1,4.63-.24c2,0,4,0,6.07,0a8.46,8.46,0,0,1,2.34.31A4.09,4.09,0,0,1,26,9.58a8.48,8.48,0,0,1,.23,1.88c.05,3.15.08,6.29.1,9.44A6.85,6.85,0,0,1,26,23.23a4,4,0,0,1-2.77,2.66,7.22,7.22,0,0,1-1.66.29c-2.24.06-4.5.1-6.75.12-1.09,0-2.18,0-3.27,0a6.35,6.35,0,0,1-3-.7,4.26,4.26,0,0,1-2-2.67,14.15,14.15,0,0,1-.27-3.31c0-1.07,0-2.14,0-3.22ZM16.31,9.88a6.26,6.26,0,1,0,6.22,6.2A6.27,6.27,0,0,0,16.31,9.88Zm6.41,1.29a1.45,1.45,0,1,0-1.36-1.52A1.45,1.45,0,0,0,22.72,11.17Z"/><path class="cls-2" d="M16.31,9.88A6.26,6.26,0,1,1,10,16.14,6.24,6.24,0,0,1,16.31,9.88Zm4.07,6.3a4.1,4.1,0,1,0-4.18,4.05A4.08,4.08,0,0,0,20.38,16.18Z"/><path class="cls-2" d="M22.72,11.17a1.45,1.45,0,1,1,1.51-1.38A1.44,1.44,0,0,1,22.72,11.17Z"/><path class="cls-1" d="M20.38,16.18a4.1,4.1,0,1,1-4-4.18A4.08,4.08,0,0,1,20.38,16.18Z"/></g></g></svg>