<svg xmlns="http://www.w3.org/2000/svg" viewBox="0 0 126.37 42.12"><defs><style>.cls-1{fill:#5cb44a;}.cls-2{fill:#5bb24a;}.cls-3{fill:#404040;}</style></defs><title>Asset 7</title><g id="Layer_2" data-name="Layer 2"><g id="_ÎÓÈ_1" data-name="—ÎÓÈ_1"><path d="M48.24,16H53c1.92,0,3.22.63,3.22,2.5a2.21,2.21,0,0,1-1.37,2.11,2.46,2.46,0,0,1,1.85,2.56c0,2-1.74,2.92-3.56,2.92H48.24Zm2.22,4.09h2.25c.77,0,1.35-.36,1.35-1.2s-.73-1.16-1.52-1.16H50.46Zm0,4.28h2.37c.88,0,1.64-.29,1.64-1.33s-.65-1.44-1.59-1.44H50.46Z"/><path d="M58.19,16h4.55a3.11,3.11,0,0,1,3.48,3.24c0,1.64-1,3.23-3.48,3.23H60.41v3.62H58.19Zm2.22,4.75h1.72c1,0,1.95-.23,1.95-1.51s-.92-1.51-1.95-1.51H60.41Z"/><path d="M73.77,17.86h-3V16H79v1.87H76v8.22H73.77Z"/><path d="M81.88,16h2.27l3.77,10.09h-2.3l-.76-2.25H81.08l-.79,2.25H78.05Zm-.22,6.19h2.62L83,18.48h0Z"/><path d="M88.8,16h4.54c2.52,0,3.49,1.6,3.49,3.24s-1,3.23-3.49,3.23H91v3.62H88.8ZM91,20.74h1.73c1,0,2-.23,2-1.51s-.92-1.51-2-1.51H91Z"/><path d="M98.22,16h7.54v1.87h-5.32V20h4.88v1.72h-4.88v2.47h5.43v1.87H98.22Z"/><path d="M107.37,16h5.44a2.77,2.77,0,0,1,3,2.79,2.47,2.47,0,0,1-1.6,2.52v0c1.09.29,1.4,1.34,1.47,2.36a5.58,5.58,0,0,0,.43,2.39h-2.22a10.92,10.92,0,0,1-.35-2.42c-.16-1.06-.57-1.52-1.68-1.52h-2.22v3.94h-2.22Zm2.22,4.57H112c1,0,1.52-.43,1.52-1.44s-.53-1.4-1.52-1.4h-2.43Z"/><path d="M120.32,16h2.28l3.77,10.09h-2.3l-.77-2.25h-3.77l-.79,2.25h-2.25Zm-.21,6.19h2.61l-1.27-3.7h0Z"/><path class="cls-1" d="M21.47,10.62a4.83,4.83,0,0,0,4-7.57c-.89.85-1.76,1.79-2.74,2.59C21,7.05,20.58,8.45,21.47,10.62Z"/><path class="cls-1" d="M21.14,0,19.45,2.93a3,3,0,0,0,.25,3.22c.42.71.84.8,1.52.27C23.29,4.84,23.31,2.13,21.14,0Z"/><path class="cls-1" d="M20.28,10.13c.68-2.59.43-2.94-4.8-6.6C14.22,7.43,16.22,10.18,20.28,10.13Z"/><path class="cls-2" d="M33.28,18.24a3.73,3.73,0,0,0,3.84-3.89,3.8,3.8,0,0,0-4-3.87,3.88,3.88,0,1,0,.15,7.76Z"/><path class="cls-2" d="M8.84,18.24a3.83,3.83,0,0,0,3.95-3.84A3.87,3.87,0,0,0,9,10.48a3.8,3.8,0,0,0-4,3.87A3.73,3.73,0,0,0,8.84,18.24Z"/><rect class="cls-3" x="16.95" y="25.2" width="3.68" height="3.68" rx="0.57"/><rect class="cls-3" x="21.62" y="25.2" width="3.68" height="3.68" rx="0.57"/><rect class="cls-3" x="16.95" y="29.8" width="3.68" height="3.68" rx="0.57"/><rect class="cls-3" x="21.62" y="29.8" width="3.68" height="3.68" rx="0.57"/><path class="cls-2" d="M41.93,28.32a4.76,4.76,0,0,0-1.14-1.42c-2.19-1.85-4.42-3.66-6.64-5.49L22.7,12l0,0h0a2.57,2.57,0,0,0-1.56-.6H21a2.54,2.54,0,0,0-1.56.6h0l0,0L8,21.41c-2.21,1.83-4.44,3.64-6.64,5.49A4.73,4.73,0,0,0,.19,28.32c-.52,1,.07,1.82,1.31,1.78a4.23,4.23,0,0,0,2.32-1.05c1.79-1.2,3.54-2.45,5.3-3.68.39-.27.58-.17.62.32q.24,2.64.45,5.28c.26,3,.5,6,.77,9a4.06,4.06,0,0,0,.41,1.35,1.19,1.19,0,0,0,1.2.78,1.15,1.15,0,0,0,1-.92A11.61,11.61,0,0,0,14,38.84q.31-7.85.58-15.7l0-.85a1.28,1.28,0,0,1,.58-1.08c1.81-1.24,3.62-2.48,5.4-3.75l.2-.12.07,0h0l.1,0h.22l.09,0h0a1,1,0,0,1,.26.15l1.17.82c1.4,1,2.82,2,4.23,2.93l.18.15a1.19,1.19,0,0,1,.41.93c0,.2,0,.41,0,.62q.27,8,.59,15.93a11.61,11.61,0,0,0,.36,2.35,1.15,1.15,0,0,0,1,.92,1.17,1.17,0,0,0,1.2-.78A4.06,4.06,0,0,0,31.15,40c.28-3,.52-6,.77-9l.45-5.28c.05-.49.24-.59.63-.32,1.76,1.23,3.51,2.48,5.29,3.68a4.25,4.25,0,0,0,2.33,1.05C41.86,30.14,42.44,29.32,41.93,28.32Z"/></g></g></svg>