<svg xmlns="http://www.w3.org/2000/svg" xmlns:xlink="http://www.w3.org/1999/xlink" viewBox="0 0 50.69 39.46"><defs><style>.cls-1{fill:#333;}.cls-2{fill:url(#linear-gradient);}</style><linearGradient id="linear-gradient" x1="35.34" y1="31.04" x2="50.69" y2="31.04" gradientUnits="userSpaceOnUse"><stop offset="0" stop-color="#018fbe"/><stop offset="0.7" stop-color="#29aae1"/></linearGradient></defs><title>Asset 5</title><g id="Layer_2" data-name="Layer 2"><g id="_ÎÓÈ_1" data-name="—ÎÓÈ_1"><path class="cls-1" d="M16,18.77a9.39,9.39,0,1,1,9.39-9.38A9.4,9.4,0,0,1,16,18.77Zm0-17.5a8.12,8.12,0,1,0,8.12,8.12A8.13,8.13,0,0,0,16,1.27Z"/><path class="cls-1" d="M31.43,39.46H.63A.64.64,0,0,1,0,38.82V27.73A7.43,7.43,0,0,1,7.43,20.3h17.2a7.43,7.43,0,0,1,7.43,7.43V38.82A.64.64,0,0,1,31.43,39.46ZM1.27,38.19H30.79V27.73a6.16,6.16,0,0,0-6.16-6.16H7.43a6.16,6.16,0,0,0-6.16,6.16Z"/><path class="cls-1" d="M25,39.46a.64.64,0,0,1-.64-.64V31.06a.64.64,0,0,1,.64-.64.64.64,0,0,1,.63.64v7.76A.64.64,0,0,1,25,39.46Z"/><path class="cls-1" d="M7,39.46a.64.64,0,0,1-.63-.64V31.06a.63.63,0,1,1,1.26,0v7.76A.64.64,0,0,1,7,39.46Z"/><path class="cls-2" d="M43,38.72A7.68,7.68,0,1,1,50.69,31,7.69,7.69,0,0,1,43,38.72ZM43,24.4A6.64,6.64,0,1,0,49.66,31,6.65,6.65,0,0,0,43,24.4Z"/></g></g></svg>