<svg xmlns="http://www.w3.org/2000/svg" viewBox="0 0 26.68 25.44"><defs><style>.cls-1{fill:none;stroke:#6e6e6e;stroke-miterlimit:10;stroke-width:1.2px;}</style></defs><title>Asset 8</title><g id="Layer_2" data-name="Layer 2"><g id="_ÎÓÈ_1" data-name="—ÎÓÈ_1"><line class="cls-1" x1="13.03" y1="2.46" x2="13.03" y2="4.95"/><path class="cls-1" d="M15.51,23.59c0,.69-1.11,1.25-2.48,1.25s-2.49-.56-2.49-1.25"/><path class="cls-1" d="M3.71,7.44A3.73,3.73,0,0,1,7.44,3.71"/><path class="cls-1" d="M.6,7.44A6.84,6.84,0,0,1,7.44.6"/><path class="cls-1" d="M23,7.44a3.73,3.73,0,0,0-3.73-3.73"/><path class="cls-1" d="M26.08,7.44A6.84,6.84,0,0,0,19.24.6"/><path class="cls-1" d="M19.24,17.38V11.16a6.22,6.22,0,0,0-12.43,0v6.22L4.33,21.11v1.24h17.4V21.11Z"/></g></g></svg>