<svg xmlns="http://www.w3.org/2000/svg" viewBox="0 0 32.66 32.63"><defs><style>.cls-1{fill:#4d4d4d;}.cls-2{fill:#fff;}</style></defs><title>Asset 12</title><g id="Layer_2" data-name="Layer 2"><g id="_ÎÓÈ_1" data-name="—ÎÓÈ_1"><path class="cls-1" d="M16.34,0A16.32,16.32,0,1,1,0,16.3,16.35,16.35,0,0,1,16.34,0ZM16,13.07a8.72,8.72,0,0,1-2.72-.47,16,16,0,0,1-2.58-1A14.47,14.47,0,0,1,8.4,10c-.72-.58-1.34-1.26-2-1.93a4.36,4.36,0,0,0-.64,2.49,4.82,4.82,0,0,0,1.91,3.74,6.46,6.46,0,0,1-2-.52,4.9,4.9,0,0,0,3.51,4.72,3.8,3.8,0,0,1-.51.13c-.42,0-.83,0-1.32,0a2.32,2.32,0,0,0,.13.47,4.62,4.62,0,0,0,3.36,2.7l.7.15A9.94,9.94,0,0,1,4.8,23.88a1,1,0,0,0,.35.31,24.76,24.76,0,0,0,2.64,1.18,13.39,13.39,0,0,0,6.88.38,12.66,12.66,0,0,0,8.9-6.56,13.8,13.8,0,0,0,1.77-6.65.89.89,0,0,1,.33-.71c.58-.54,1.12-1.11,1.67-1.68a1.63,1.63,0,0,0,.17-.35c-.44.13-.79.24-1.14.33a2.67,2.67,0,0,1-1.14.16A4.75,4.75,0,0,0,27,7.88a5.14,5.14,0,0,1-.52.24c-.62.23-1.24.47-1.87.69a.77.77,0,0,1-.86-.2,4.39,4.39,0,0,0-2.42-1.18A4.68,4.68,0,0,0,16,12C16,12.34,16,12.67,16,13.07Z"/><path class="cls-2" d="M16,13.07c0-.4,0-.73,0-1.06a4.68,4.68,0,0,1,5.38-4.58,4.39,4.39,0,0,1,2.42,1.18.77.77,0,0,0,.86.2c.63-.22,1.25-.46,1.87-.69A5.14,5.14,0,0,0,27,7.88a4.75,4.75,0,0,1-1.78,2.41,2.67,2.67,0,0,0,1.14-.16c.35-.09.7-.2,1.14-.33a1.63,1.63,0,0,1-.17.35c-.55.57-1.09,1.14-1.67,1.68a.89.89,0,0,0-.33.71,13.8,13.8,0,0,1-1.77,6.65,12.66,12.66,0,0,1-8.9,6.56,13.39,13.39,0,0,1-6.88-.38,24.76,24.76,0,0,1-2.64-1.18,1,1,0,0,1-.35-.31A9.94,9.94,0,0,0,11.49,22l-.7-.15a4.62,4.62,0,0,1-3.36-2.7,2.32,2.32,0,0,1-.13-.47c.49,0,.9,0,1.32,0a3.8,3.8,0,0,0,.51-.13A4.9,4.9,0,0,1,5.62,13.8a6.46,6.46,0,0,0,2,.52,4.82,4.82,0,0,1-1.91-3.74,4.36,4.36,0,0,1,.64-2.49c.69.67,1.31,1.35,2,1.93a14.47,14.47,0,0,0,2.26,1.53,16,16,0,0,0,2.58,1A8.72,8.72,0,0,0,16,13.07Z"/></g></g></svg>