<svg xmlns="http://www.w3.org/2000/svg" xmlns:xlink="http://www.w3.org/1999/xlink" viewBox="0 0 56.46 39.51"><defs><style>.cls-1{fill:#333;}.cls-2{fill:url(#linear-gradient);}.cls-3{fill:url(#linear-gradient-2);}.cls-4{fill:url(#linear-gradient-3);}.cls-5{fill:url(#linear-gradient-4);}</style><linearGradient id="linear-gradient" x1="31.05" y1="9.39" x2="49.82" y2="9.39" gradientUnits="userSpaceOnUse"><stop offset="0" stop-color="#018fbe"/><stop offset="0.7" stop-color="#29aae1"/></linearGradient><linearGradient id="linear-gradient-2" x1="24.4" y1="29.88" x2="56.46" y2="29.88" xlink:href="#linear-gradient"/><linearGradient id="linear-gradient-3" x1="48.81" y1="34.94" x2="50.08" y2="34.94" xlink:href="#linear-gradient"/><linearGradient id="linear-gradient-4" x1="30.79" y1="34.94" x2="32.06" y2="34.94" xlink:href="#linear-gradient"/></defs><title>Asset 3</title><g id="Layer_2" data-name="Layer 2"><g id="_ÎÓÈ_1" data-name="—ÎÓÈ_1"><path class="cls-1" d="M16,18.82a9.39,9.39,0,1,1,9.39-9.38A9.4,9.4,0,0,1,16,18.82Zm0-17.5a8.12,8.12,0,1,0,8.12,8.12A8.13,8.13,0,0,0,16,1.32Z"/><path class="cls-1" d="M31.43,39.51H.63A.64.64,0,0,1,0,38.87V27.78a7.43,7.43,0,0,1,7.43-7.43h17.2a7.43,7.43,0,0,1,7.43,7.43V38.87A.64.64,0,0,1,31.43,39.51ZM1.27,38.24H30.79V27.78a6.16,6.16,0,0,0-6.16-6.16H7.43a6.16,6.16,0,0,0-6.16,6.16Z"/><path class="cls-1" d="M25,39.51a.64.64,0,0,1-.64-.64V31.11a.64.64,0,0,1,.64-.64.64.64,0,0,1,.63.64v7.76A.64.64,0,0,1,25,39.51Z"/><path class="cls-1" d="M7,39.51a.64.64,0,0,1-.63-.64V31.11a.63.63,0,1,1,1.26,0v7.76A.64.64,0,0,1,7,39.51Z"/><path class="cls-2" d="M40.43,18.77a9.39,9.39,0,1,1,9.39-9.38A9.39,9.39,0,0,1,40.43,18.77Zm0-17.5a8.12,8.12,0,1,0,8.12,8.12A8.13,8.13,0,0,0,40.43,1.27Z"/><path class="cls-3" d="M55.83,39.46H25a.64.64,0,0,1-.64-.64V27.73a7.44,7.44,0,0,1,7.43-7.43H49a7.43,7.43,0,0,1,7.42,7.43V38.82A.64.64,0,0,1,55.83,39.46ZM25.67,38.19H55.2V27.73A6.17,6.17,0,0,0,49,21.57H31.83a6.16,6.16,0,0,0-6.16,6.16Z"/><path class="cls-4" d="M49.44,39.46a.64.64,0,0,1-.63-.64V31.06a.64.64,0,0,1,.63-.64.64.64,0,0,1,.64.64v7.76A.64.64,0,0,1,49.44,39.46Z"/><path class="cls-5" d="M31.43,39.46a.64.64,0,0,1-.64-.64V31.06a.64.64,0,0,1,.64-.64.64.64,0,0,1,.63.64v7.76A.64.64,0,0,1,31.43,39.46Z"/></g></g></svg>