<svg xmlns="http://www.w3.org/2000/svg" viewBox="0 0 120.05 120.05"><defs><style>.cls-1{fill:#ffb548;stroke:#fff;stroke-miterlimit:10;}.cls-2{fill:#fff;}</style></defs><title>Asset 1</title><g id="Layer_2" data-name="Layer 2"><g id="_ÎÓÈ_1" data-name="—ÎÓÈ_1"><circle class="cls-1" cx="60.02" cy="60.02" r="59.52"/><path class="cls-2" d="M62.71,53.52A18.3,18.3,0,1,1,81,35.22,18.32,18.32,0,0,1,62.71,53.52Zm0-35.06A16.76,16.76,0,1,0,79.47,35.22,16.78,16.78,0,0,0,62.71,18.46Z"/><path class="cls-2" d="M31.88,94.94a.76.76,0,0,1-.77-.77V72A14.39,14.39,0,0,1,45.48,57.58H79.94A14.39,14.39,0,0,1,94.31,72V94.17a.76.76,0,0,1-.77.77Zm13.6-35.83A12.85,12.85,0,0,0,32.64,72V93.4H92.78V72A12.85,12.85,0,0,0,79.94,59.11Z"/><path class="cls-2" d="M80.75,94.94a.77.77,0,0,1-.77-.77V78.62a.77.77,0,0,1,1.54,0V94.17A.77.77,0,0,1,80.75,94.94Z"/><path class="cls-2" d="M44.67,94.94a.77.77,0,0,1-.77-.77V78.62a.77.77,0,1,1,1.54,0V94.17A.77.77,0,0,1,44.67,94.94Z"/></g></g></svg>