<svg xmlns="http://www.w3.org/2000/svg" viewBox="0 0 28.14 25.32"><defs><style>.cls-1{fill:none;stroke:#fff;stroke-miterlimit:10;stroke-width:2px;}</style></defs><title>DatePicker</title><g id="Layer_2" data-name="Layer 2"><g id="_ÎÓÈ_1" data-name="—ÎÓÈ_1"><path class="cls-1" d="M22.89,2.43h3.65a.6.6,0,0,1,.6.61V23.71a.6.6,0,0,1-.6.61H1.61A.61.61,0,0,1,1,23.71V3a.61.61,0,0,1,.61-.61H5.26"/><line class="cls-1" x1="1" y1="7.3" x2="27.14" y2="7.3"/><line class="cls-1" x1="21.67" x2="21.67" y2="4.26"/><line class="cls-1" x1="7.69" y1="2.43" x2="20.46" y2="2.43"/><line class="cls-1" x1="6.47" x2="6.47" y2="4.26"/><line class="cls-1" x1="10.12" y1="12.16" x2="11.94" y2="12.16"/><line class="cls-1" x1="13.16" y1="12.16" x2="14.98" y2="12.16"/><line class="cls-1" x1="16.2" y1="12.16" x2="18.02" y2="12.16"/><line class="cls-1" x1="19.24" y1="12.16" x2="21.06" y2="12.16"/><line class="cls-1" x1="7.08" y1="15.2" x2="8.9" y2="15.2"/><line class="cls-1" x1="10.12" y1="15.2" x2="11.94" y2="15.2"/><line class="cls-1" x1="13.16" y1="15.2" x2="14.98" y2="15.2"/><line class="cls-1" x1="16.2" y1="15.2" x2="18.02" y2="15.2"/><line class="cls-1" x1="19.24" y1="15.2" x2="21.06" y2="15.2"/><line class="cls-1" x1="7.08" y1="18.24" x2="8.9" y2="18.24"/><line class="cls-1" x1="10.12" y1="18.24" x2="11.94" y2="18.24"/><line class="cls-1" x1="13.16" y1="18.24" x2="14.98" y2="18.24"/><line class="cls-1" x1="16.2" y1="18.24" x2="18.02" y2="18.24"/></g></g></svg>