<svg xmlns="http://www.w3.org/2000/svg" viewBox="0 0 120.62 120.62"><defs><style>.cls-1{fill:#ffb548;stroke:#fff;stroke-miterlimit:10;stroke-width:4px;}.cls-2{fill:#fff;}</style></defs><title>Asset 1</title><g id="Layer_2" data-name="Layer 2"><g id="_ÎÓÈ_1" data-name="—ÎÓÈ_1"><circle class="cls-1" cx="60.31" cy="60.31" r="58.31"/><path class="cls-2" d="M29.78,86.36H33.6c1.54,0,2.58.5,2.58,2a1.76,1.76,0,0,1-1.1,1.69,2,2,0,0,1,1.49,2.06c0,1.64-1.4,2.35-2.86,2.35H29.78Zm1.79,3.28h1.8c.62,0,1.09-.28,1.09-1s-.59-.93-1.23-.93H31.57Zm0,3.44h1.9c.7,0,1.32-.22,1.32-1.06s-.52-1.16-1.28-1.16H31.57Z"/><path class="cls-2" d="M37.77,86.36h3.66a2.61,2.61,0,1,1,0,5.2H39.55v2.91H37.77Zm1.78,3.82h1.39c.83,0,1.56-.18,1.56-1.22s-.73-1.21-1.56-1.21H39.55Z"/><path class="cls-2" d="M50.29,87.86H47.86v-1.5H54.5v1.5H52.07v6.61H50.29Z"/><path class="cls-2" d="M56.8,86.36h1.83l3,8.11H59.81l-.61-1.81h-3l-.64,1.81h-1.8Zm-.17,5h2.1l-1-3h0Z"/><path class="cls-2" d="M62.36,86.36H66a2.61,2.61,0,1,1,0,5.2H64.14v2.91H62.36Zm1.78,3.82h1.39c.83,0,1.56-.18,1.56-1.22s-.73-1.21-1.56-1.21H64.14Z"/><path class="cls-2" d="M69.93,86.36H76v1.5H71.71V89.6h3.93V91H71.71v2h4.37v1.5H69.93Z"/><path class="cls-2" d="M77.29,86.36h4.36A2.23,2.23,0,0,1,84,88.6a2,2,0,0,1-1.29,2v0c.88.23,1.13,1.08,1.18,1.9a4.67,4.67,0,0,0,.34,1.92H82.48a9.33,9.33,0,0,1-.28-1.94c-.13-.85-.46-1.23-1.35-1.23H79.07v3.17H77.29ZM79.07,90h2c.79,0,1.22-.34,1.22-1.16s-.43-1.12-1.22-1.12h-2Z"/><path class="cls-2" d="M87.69,86.36h1.83l3,8.11H90.7l-.61-1.81h-3l-.64,1.81h-1.8Zm-.17,5h2.1l-1-3h0Z"/><path class="cls-2" d="M59.79,30.09c5.92-.19,9-6.22,5.89-11.2-1.32,1.27-2.6,2.66-4.05,3.83C59.07,24.8,58.49,26.87,59.79,30.09Z"/><path class="cls-2" d="M59.32,14.39l-2.51,4.34c-1,1.66-.55,3.21.37,4.75.62,1,1.25,1.17,2.25.4C62.48,21.54,62.52,17.54,59.32,14.39Z"/><path class="cls-2" d="M58,29.36c1-3.83.65-4.34-7.08-9.76C49.08,25.38,52,29.44,58,29.36Z"/><path class="cls-2" d="M77.25,41.34a5.53,5.53,0,0,0,5.67-5.75A5.63,5.63,0,0,0,77,29.87a5.72,5.72,0,0,0-5.63,5.8A5.67,5.67,0,0,0,77.25,41.34Z"/><path class="cls-2" d="M41.13,41.34A5.67,5.67,0,0,0,47,35.67a5.73,5.73,0,0,0-5.63-5.8,5.63,5.63,0,0,0-5.89,5.72A5.52,5.52,0,0,0,41.13,41.34Z"/><rect class="cls-2" x="53.12" y="51.62" width="5.44" height="5.44" rx="0.84"/><rect class="cls-2" x="60.02" y="51.62" width="5.44" height="5.44" rx="0.84"/><rect class="cls-2" x="53.12" y="58.41" width="5.44" height="5.44" rx="0.84"/><rect class="cls-2" x="60.02" y="58.41" width="5.44" height="5.44" rx="0.84"/><path class="cls-2" d="M90,56.24a6.88,6.88,0,0,0-1.68-2.11c-3.24-2.74-6.53-5.41-9.81-8.1L61.62,32.13l0,0h0a3.8,3.8,0,0,0-2.3-.89H59.1a3.75,3.75,0,0,0-2.3.89h0l0,0L39.84,46c-3.28,2.69-6.57,5.36-9.81,8.1a7.19,7.19,0,0,0-1.68,2.11c-.76,1.47.11,2.68,1.94,2.62,1.26,0,2.35-.81,3.44-1.55,2.63-1.78,5.21-3.62,7.82-5.44.57-.4.86-.25.92.48.23,2.6.45,5.19.67,7.79.37,4.44.72,8.88,1.13,13.32a5.89,5.89,0,0,0,.61,2,1.71,1.71,0,0,0,1.78,1.15,1.68,1.68,0,0,0,1.53-1.35,17,17,0,0,0,.54-3.48q.47-11.59.85-23.19c0-.42,0-.84.05-1.26a2,2,0,0,1,.19-.84,2,2,0,0,1,.67-.75c2.67-1.83,5.34-3.67,8-5.55a3.4,3.4,0,0,1,.3-.18l.09,0h0l.13,0h.33a.7.7,0,0,1,.14,0h0a2,2,0,0,1,.39.22c.57.41,1.14.82,1.72,1.22,2.07,1.46,4.16,2.9,6.25,4.33l.27.21a1.83,1.83,0,0,1,.6,1.38l0,.91q.41,11.77.87,23.54a17,17,0,0,0,.53,3.48,1.69,1.69,0,0,0,1.54,1.35,1.72,1.72,0,0,0,1.78-1.15,6.11,6.11,0,0,0,.6-2c.41-4.44.76-8.88,1.14-13.32.22-2.6.44-5.19.67-7.79.06-.73.35-.88.91-.48,2.61,1.82,5.2,3.66,7.83,5.44,1.09.74,2.17,1.58,3.43,1.55C89.91,58.92,90.78,57.71,90,56.24Z"/></g></g></svg>