<svg xmlns="http://www.w3.org/2000/svg" xmlns:xlink="http://www.w3.org/1999/xlink" viewBox="0 0 29.78 28.64"><defs><style>.cls-1{fill-rule:evenodd;fill:url(#New_Gradient_Swatch_18);}.cls-2{fill:#fff;}.cls-3{fill:#cbcbca;}.cls-4{fill:#3aa0d9;}</style><linearGradient id="New_Gradient_Swatch_18" x1="14.89" y1="27.5" x2="14.89" y2="0.83" gradientUnits="userSpaceOnUse"><stop offset="0" stop-color="#f2f2f2"/><stop offset="1" stop-color="#fff"/></linearGradient></defs><title>Search</title><g id="Layer_2" data-name="Layer 2"><g id="_ÎÓÈ_1" data-name="—ÎÓÈ_1"><path class="cls-1" d="M14.31,27.86a13.54,13.54,0,0,1,0-27.08h1.16a13.54,13.54,0,0,1,0,27.08Z"/><path class="cls-2" d="M15.47,1.28a13.12,13.12,0,0,1,13,13.17,13,13,0,0,1-13,12.91H14.31a13,13,0,0,1-13-12.91,13.12,13.12,0,0,1,13-13.17h1.16m0-1H14.31a14.15,14.15,0,0,0-14,14.17,13.93,13.93,0,0,0,14,13.91h1.16a13.93,13.93,0,0,0,14-13.91A14.15,14.15,0,0,0,15.47.28Z"/><path class="cls-3" d="M15.47.28a14.15,14.15,0,0,1,14,14.17,13.93,13.93,0,0,1-14,13.91H14.31a13.93,13.93,0,0,1-14-13.91A14.15,14.15,0,0,1,14.31.28h1.16m0-.28H14.31a14.32,14.32,0,0,0,0,28.64h1.16A14.32,14.32,0,0,0,15.47,0Z"/><path class="cls-4" d="M10.23,20.68l3.24-3.25a5,5,0,0,0,2.36.59A5,5,0,1,0,12,16.27l-3.1,3.1Zm5.6-4.5A3.19,3.19,0,1,1,19,13,3.19,3.19,0,0,1,15.83,16.18Z"/></g></g></svg>